<?xml version="1.0" encoding="UTF-8" standalone="no"?>
<!-- Created with Inkscape (http://www.inkscape.org/) -->

<svg
   xmlns:dc="http://purl.org/dc/elements/1.1/"
   xmlns:cc="http://creativecommons.org/ns#"
   xmlns:rdf="http://www.w3.org/1999/02/22-rdf-syntax-ns#"
   xmlns:svg="http://www.w3.org/2000/svg"
   xmlns="http://www.w3.org/2000/svg"
   xmlns:sodipodi="http://sodipodi.sourceforge.net/DTD/sodipodi-0.dtd"
   xmlns:inkscape="http://www.inkscape.org/namespaces/inkscape"
   width="91.936172mm"
   height="53.128216mm"
   viewBox="0 0 91.936172 53.128216"
   version="1.1"
   id="svg32"
   sodipodi:docname="aeB06.svg"
   inkscape:version="0.92.4 5da689c313, 2019-01-14">
  <defs
     id="defs26" />
  <sodipodi:namedview
     id="base"
     pagecolor="#ffffff"
     bordercolor="#666666"
     borderopacity="1.0"
     inkscape:pageopacity="0.0"
     inkscape:pageshadow="2"
     inkscape:zoom="2"
     inkscape:cx="290.7442"
     inkscape:cy="67.254411"
     inkscape:document-units="mm"
     inkscape:current-layer="layer1"
     showgrid="true"
     inkscape:window-width="1920"
     inkscape:window-height="1015"
     inkscape:window-x="0"
     inkscape:window-y="0"
     inkscape:window-maximized="1"
     fit-margin-top="0"
     fit-margin-left="0"
     fit-margin-right="0"
     fit-margin-bottom="0"
     inkscape:snap-midpoints="true">
    <inkscape:grid
       type="xygrid"
       id="grid48"
       originx="-12.582263"
       originy="-138.97249"
       spacingx="0.049999999"
       spacingy="0.049999999" />
  </sodipodi:namedview>
  <metadata
     id="metadata29">
    <rdf:RDF>
      <cc:Work
         rdf:about="">
        <dc:format>image/svg+xml</dc:format>
        <dc:type
           rdf:resource="http://purl.org/dc/dcmitype/StillImage" />
        <dc:title></dc:title>
      </cc:Work>
    </rdf:RDF>
  </metadata>
  <g
     inkscape:label="Layer 1"
     inkscape:groupmode="layer"
     id="layer1"
     transform="translate(-12.582265,-104.8993)">
    <path
       style="fill:#0000ff;fill-opacity:1;fill-rule:evenodd;stroke:#0000fa;stroke-width:0.13333334;stroke-linecap:butt;stroke-linejoin:miter;stroke-miterlimit:4;stroke-dasharray:none;stroke-opacity:1"
       d="M 0.03710937,-0.19726562 V 13.972656 c 0,0 191.88162063,-0.133146 287.81250063,0.101563 12.28235,-0.09881 27.40046,14.074419 27.40046,29.192529 0,16.062992 -22.37004,27.65726 -31.1811,28.346457 0.0359,-14.578092 -0.054,-29.60152 -0.0182,-44.179611 C 189.37987,27.418474 0.03710937,27.392574 0.03710937,27.392574 V 40.62109 c 0,0 180.16561063,-0.126335 269.85937063,-0.189453 0.0463,44.055719 -0.047,88.228213 -7.4e-4,132.283933 43.46457,0 77.48032,-8.50394 77.48032,-46.29922 0,-20.7874 -15.95124,-38.652424 -58.07723,-43.553073 20.28018,-3.336907 43.904,-15.974485 43.95898,-39.595703 C 333.20283,18.69982 310.52566,-0.19590509 287.8485,-0.19590509 197.47713,-0.85571307 97.321196,-0.29205519 0.03710937,-0.19726562 Z M 326.58866,126.41635 c -1e-5,18.89764 -13.22835,30.23622 -42.51969,30.23622 0,-7.55906 0.0248,-42.11024 0,-60.472436 29.29134,0 42.11336,13.131296 42.51969,30.236216 z"
       transform="matrix(0.26458333,0,0,0.26458333,12.590085,105.05235)"
       id="path7163"
       inkscape:connector-curvature="0"
       sodipodi:nodetypes="ccccccccccccccccccc" />
    <text
       xml:space="preserve"
       style="font-style:normal;font-variant:normal;font-weight:normal;font-stretch:normal;font-size:5.06668758px;line-height:125%;font-family:alblant;-inkscape-font-specification:'alblant, Normal';font-variant-ligatures:normal;font-variant-caps:normal;font-variant-numeric:normal;font-feature-settings:normal;text-align:start;letter-spacing:0px;word-spacing:0px;writing-mode:lr-tb;text-anchor:start;fill:#0000fe;fill-opacity:1;stroke:#0000f0;stroke-width:0.29222479px;stroke-linecap:butt;stroke-linejoin:miter;stroke-opacity:1"
       x="12.081043"
       y="169.81064"
       id="text955"
       transform="scale(1.0817567,0.92442228)"><tspan
         sodipodi:role="line"
         id="tspan953"
         x="12.081043"
         y="169.81064"
         style="font-style:normal;font-variant:normal;font-weight:normal;font-stretch:normal;font-size:4.70478106px;font-family:'DejaVu Sans Light';-inkscape-font-specification:'DejaVu Sans Light, ';font-variant-ligatures:normal;font-variant-caps:normal;font-variant-numeric:normal;font-feature-settings:normal;text-align:start;writing-mode:lr-tb;text-anchor:start;fill:#0000fe;fill-opacity:1;stroke:#0000f0;stroke-width:0.29222479px;stroke-opacity:1">Agrupamento de Escolas de Benfica</tspan></text>
    <path
       style="opacity:1;fill:#0000ff;fill-opacity:1;stroke:#0000ff;stroke-width:0.03527778;stroke-linecap:round;stroke-linejoin:round;stroke-miterlimit:4;stroke-dasharray:none;stroke-dashoffset:0;stroke-opacity:1"
       d="m 12.600001,119.37979 v 3.44476 h 29.493154 l -1.240488,3.60133 H 12.600001 v 3.5233 H 39.63256 l -1.174127,3.66747 H 12.600001 v 3.37912 h 24.668108 l -1.203387,3.5233 H 12.600001 v 3.5233 h 22.247226 l -1.19346,3.5233 H 12.600001 v 3.1905 h 26.345953 l 3.210949,-9.47642 8.701697,-0.16588 3.318591,9.6423 h 6.304328 l -3.44661,-9.55962 h 1.636471 c 1.228352,5.45723 6.149373,9.53844 12.037534,9.53844 5.071935,-1e-5 9.467646,-3.02808 11.301807,-7.35511 h -4.085666 c -1.580169,2.34624 -4.151742,3.90105 -7.186882,3.90105 -3.901055,0 -7.194474,-2.56634 -8.252844,-6.08438 h 20.434593 v -4.61677 c -0.946549,-5.80769 -6.071496,-10.24382 -12.211008,-10.24382 -6.128367,0 -11.210408,4.42016 -12.170255,10.21229 l -2.996097,-0.007 -5.806356,-17.12425 z m 33.897562,9.15914 2.662291,7.64862 h -5.284871 z m 24.24061,1.70997 c 3.498654,0.002 7.344348,2.68412 8.321819,6.32571 l -16.637887,-0.0212 c 0.984844,-3.63071 4.823282,-6.30675 8.316068,-6.30453 z"
       id="path848-3"
       inkscape:connector-curvature="0"
       sodipodi:nodetypes="cccccccccccccccccccccccccsccscccscccccccccccsc" />
    <path
       style="opacity:0.93999999;vector-effect:none;fill:none;fill-opacity:0.66666667;fill-rule:nonzero;stroke:none;stroke-width:0.04714045;stroke-linecap:butt;stroke-linejoin:miter;stroke-miterlimit:4;stroke-dasharray:none;stroke-dashoffset:0;stroke-opacity:1"
       d="M 270.24516,106.47002 V 40.301708 H 135.18776 0.13036654 V 33.937747 27.573786 H 141.90528 283.68018 V 49.84765 c 0,12.250625 0.12926,22.273863 0.28724,22.273863 0.84118,0 6.98378,-2.331179 10.23538,-3.884434 17.91646,-8.558506 24.38211,-22.318889 17.38445,-36.998055 -3.63816,-7.631841 -11.96622,-14.322734 -20.82889,-16.734246 -2.63958,-0.718223 -2.91489,-0.719574 -146.63627,-0.719574 H 0.13036654 V 6.8909129 -0.00337816 L 14.007337,0.01273801 c 7.632334,0.0088639 73.141358,0.15845517 145.575613,0.33242511 145.05903,0.34839741 133.91689,0.15057262 141.27732,2.50832878 7.19021,2.3032296 13.16567,5.4421972 18.42161,9.6770561 10.07952,8.121344 14.89835,19.612309 13.59888,32.427861 -0.49824,4.91376 -1.43232,8.41321 -3.25701,12.202125 -5.78066,12.003434 -19.7871,21.127792 -38.42245,25.029936 -1.9887,0.416422 -3.72553,0.866849 -3.85962,1.000941 -0.1341,0.134096 0.87954,0.243811 2.25253,0.243811 5.48145,0 15.19053,1.369365 21.21142,2.991655 20.59547,5.549307 32.97524,17.465923 35.96688,34.621253 0.70399,4.03695 0.71827,12.58479 0.0276,16.52284 -2.94702,16.80343 -15.39584,28.37354 -34.75836,32.30489 -6.87332,1.39556 -17.23479,2.22028 -31.98549,2.5459 l -9.81111,0.21658 v -66.16832 z m 30.06008,50.91353 c 14.67919,-3.01983 23.27404,-9.94239 26.18738,-21.0921 1.04176,-3.98697 1.04358,-10.56327 0.004,-14.49569 -1.94764,-7.36739 -6.56886,-13.1269 -14.13027,-17.61081 -6.5861,-3.90556 -16.43694,-7.004014 -25.27993,-7.951477 l -2.69916,-0.289196 v 31.269753 31.26975 l 6.27557,-0.2038 c 4.10877,-0.13344 7.43806,-0.44295 9.64238,-0.89643 z"
       id="path4520"
       inkscape:connector-curvature="0"
       transform="matrix(0.26458333,0,0,0.26458333,12.590085,105.05235)" />
    <path
       style="opacity:0.93999999;vector-effect:none;fill:none;fill-opacity:0.66666667;fill-rule:nonzero;stroke:none;stroke-width:0.04714045;stroke-linecap:butt;stroke-linejoin:miter;stroke-miterlimit:4;stroke-dasharray:none;stroke-dashoffset:0;stroke-opacity:1"
       d="M 270.24516,106.47002 V 40.301708 H 135.18776 0.13036654 V 33.937747 27.573786 H 141.90528 283.68018 V 49.84765 c 0,12.250625 0.12926,22.273863 0.28724,22.273863 0.84118,0 6.98378,-2.331179 10.23538,-3.884434 17.91646,-8.558506 24.38211,-22.318889 17.38445,-36.998055 -3.63816,-7.631841 -11.96622,-14.322734 -20.82889,-16.734246 -2.63958,-0.718223 -2.91489,-0.719574 -146.63627,-0.719574 H 0.13036654 V 6.8909129 -0.00337816 L 14.007337,0.01273801 c 7.632334,0.0088639 73.141358,0.15845517 145.575613,0.33242511 145.05903,0.34839741 133.91689,0.15057262 141.27732,2.50832878 7.19021,2.3032296 13.16567,5.4421972 18.42161,9.6770561 10.07952,8.121344 14.89835,19.612309 13.59888,32.427861 -0.49824,4.91376 -1.43232,8.41321 -3.25701,12.202125 -5.78066,12.003434 -19.7871,21.127792 -38.42245,25.029936 -1.9887,0.416422 -3.72553,0.866849 -3.85962,1.000941 -0.1341,0.134096 0.87954,0.243811 2.25253,0.243811 5.48145,0 15.19053,1.369365 21.21142,2.991655 20.59547,5.549307 32.97524,17.465923 35.96688,34.621253 0.70399,4.03695 0.71827,12.58479 0.0276,16.52284 -2.94702,16.80343 -15.39584,28.37354 -34.75836,32.30489 -6.87332,1.39556 -17.23479,2.22028 -31.98549,2.5459 l -9.81111,0.21658 v -66.16832 z m 30.06008,50.91353 c 14.67919,-3.01983 23.27404,-9.94239 26.18738,-21.0921 1.04176,-3.98697 1.04358,-10.56327 0.004,-14.49569 -1.94764,-7.36739 -6.56886,-13.1269 -14.13027,-17.61081 -6.5861,-3.90556 -16.43694,-7.004014 -25.27993,-7.951477 l -2.69916,-0.289196 v 31.269753 31.26975 l 6.27557,-0.2038 c 4.10877,-0.13344 7.43806,-0.44295 9.64238,-0.89643 z"
       id="path4522"
       inkscape:connector-curvature="0"
       transform="matrix(0.26458333,0,0,0.26458333,12.590085,105.05235)" />
    <path
       style="opacity:0.93999999;vector-effect:none;fill:none;fill-opacity:0.66666667;fill-rule:nonzero;stroke:none;stroke-width:0.04714045;stroke-linecap:butt;stroke-linejoin:miter;stroke-miterlimit:4;stroke-dasharray:none;stroke-dashoffset:0;stroke-opacity:1"
       d="M 270.24516,106.35036 V 40.301708 H 135.56218 c -107.358128,0 -134.74100606,-0.08966 -134.96900606,-0.441942 -0.1573169,-0.243067 -0.2860307,-3.106638 -0.2860307,-6.363492 V 27.574723 L 141.99366,27.574255 283.68018,27.573786 v 21.941973 21.941975 l 1.67938,-0.234632 c 2.13446,-0.298211 7.33773,-2.003675 9.58053,-3.14019 9.69715,-4.913915 16.39248,-11.902414 18.65583,-19.472699 0.93088,-3.113519 0.86189,-8.723644 -0.15129,-12.303368 -1.41158,-4.987346 -3.639,-8.75367 -7.64441,-12.925899 -4.36393,-4.545682 -9.21491,-7.449336 -14.84036,-8.883014 -2.78141,-0.708858 -3.57852,-0.712728 -146.81304,-0.712728 H 0.13036654 V 6.8909129 -0.00337816 L 14.184114,0.01311044 c 7.729561,0.0090686 73.079485,0.15527181 145.222056,0.3248957 146.63649,0.34477635 134.31816,0.0970063 142.78833,2.87203386 7.9604,2.6080162 14.85547,6.849102 20.31461,12.495305 8.43314,8.722124 11.52713,17.608538 10.34863,29.722887 -0.50387,5.179451 -1.99118,9.830429 -4.49558,14.05816 -2.11856,3.576383 -8.60431,10.226475 -12.50287,12.819687 -6.15401,4.093462 -16.46895,8.377865 -23.34027,9.694579 -2.79399,0.5354 -3.33353,0.693763 -3.11343,0.913857 0.0934,0.09337 2.70149,0.484337 5.79584,0.868826 10.26176,1.275076 18.6119,3.067426 23.77452,5.103175 3.02275,1.191946 8.52263,4.169912 11.57815,6.269103 2.96742,2.038667 7.58809,6.699681 9.5859,9.669581 4.79473,7.12778 7.25587,15.34702 7.30478,24.39519 0.0393,7.27457 -1.10882,12.61234 -4.03931,18.77885 -5.26253,11.07375 -16.63601,18.8954 -32.04069,22.03467 -6.70126,1.36563 -12.53126,1.83089 -25.03294,1.99777 -6.61145,0.0882 -12.93564,0.207 -14.05375,0.26389 l -2.03293,0.10345 z m 24.02434,44.95629 c 17.88314,-1.58277 28.83397,-8.57638 31.84134,-20.33511 1.76067,-6.88416 0.29123,-12.79844 -4.75283,-19.12943 -6.44787,-8.09298 -19.23987,-13.898185 -34.40746,-15.614634 l -2.56326,-0.290073 v 27.631107 c 0,15.19711 0.10607,27.73718 0.23571,27.86681 0.34464,0.34465 5.00028,0.28256 9.6465,-0.12867 z"
       id="path4525"
       inkscape:connector-curvature="0"
       transform="matrix(0.26458333,0,0,0.26458333,12.590085,105.05235)" />
    <path
       style="opacity:0.93999999;vector-effect:none;fill:none;fill-opacity:0.66666667;fill-rule:nonzero;stroke:none;stroke-width:0.04714045;stroke-linecap:butt;stroke-linejoin:miter;stroke-miterlimit:4;stroke-dasharray:none;stroke-dashoffset:0;stroke-opacity:1"
       d="M 270.24516,106.35036 V 40.301708 H 135.56218 c -107.358128,0 -134.74100606,-0.08966 -134.96900606,-0.441942 -0.1573169,-0.243067 -0.2860307,-3.106638 -0.2860307,-6.363492 V 27.574723 L 141.99366,27.574255 283.68018,27.573786 v 21.941973 21.941975 c 3.84558,-0.608757 7.79187,-1.667897 11.25991,-3.374822 9.69715,-4.913915 16.39248,-11.902414 18.65583,-19.472699 0.93088,-3.113519 0.86189,-8.723644 -0.15129,-12.303368 -1.41158,-4.987346 -3.639,-8.75367 -7.64441,-12.925899 -4.36393,-4.545682 -9.21491,-7.449336 -14.84036,-8.883014 -2.78141,-0.708858 -3.57852,-0.712728 -146.81304,-0.712728 H 0.13036654 V 6.8909129 -0.00337816 L 14.184114,0.01311044 c 7.729561,0.0090686 73.079485,0.15527181 145.222056,0.3248957 146.63649,0.34477635 134.31816,0.0970063 142.78833,2.87203386 7.9604,2.6080162 14.85547,6.849102 20.31461,12.495305 8.43314,8.722124 11.52713,17.608538 10.34863,29.722887 -0.50387,5.179451 -1.99118,9.830429 -4.49558,14.05816 -2.11856,3.576383 -8.60431,10.226475 -12.50287,12.819687 -7.35679,6.036966 -19.53516,7.351 -26.4537,10.608436 9.41978,1.761143 20.29575,2.414817 29.57036,5.972001 3.02275,1.191946 8.52263,4.169912 11.57815,6.269103 2.96742,2.038667 7.58809,6.699681 9.5859,9.669581 4.79473,7.12778 7.25587,15.34702 7.30478,24.39519 0.0393,7.27457 -1.10882,12.61234 -4.03931,18.77885 -5.26253,11.07375 -16.63601,18.8954 -32.04069,22.03467 -6.70126,1.36563 -12.53126,1.83089 -25.03294,1.99777 -6.61145,0.0882 -12.93564,0.207 -14.05375,0.26389 l -2.03293,0.10345 z m 24.02434,44.95629 c 17.88314,-1.58277 28.83397,-8.57638 31.84134,-20.33511 1.76067,-6.88416 0.29123,-12.79844 -4.75283,-19.12943 -6.44787,-8.09298 -19.23987,-13.898185 -34.40746,-15.614634 l -2.56326,-0.290073 v 27.631107 c 0,15.19711 0.10607,27.73718 0.23571,27.86681 0.34464,0.34465 5.00028,0.28256 9.6465,-0.12867 z"
       id="path4527"
       inkscape:connector-curvature="0"
       transform="matrix(0.26458333,0,0,0.26458333,12.590085,105.05235)"
       sodipodi:nodetypes="ccscscccccccsssscccsssscscccsccsscccccssscscc" />
  </g>
</svg>
