<?xml version="1.0" encoding="UTF-8" standalone="no"?>
<!-- Created with Inkscape (http://www.inkscape.org/) -->

<svg
   xmlns:dc="http://purl.org/dc/elements/1.1/"
   xmlns:cc="http://creativecommons.org/ns#"
   xmlns:rdf="http://www.w3.org/1999/02/22-rdf-syntax-ns#"
   xmlns:svg="http://www.w3.org/2000/svg"
   xmlns="http://www.w3.org/2000/svg"
   xmlns:sodipodi="http://sodipodi.sourceforge.net/DTD/sodipodi-0.dtd"
   xmlns:inkscape="http://www.inkscape.org/namespaces/inkscape"
   width="92.133827mm"
   height="52.995167mm"
   viewBox="0 0 92.133827 52.995167"
   version="1.1"
   id="svg32"
   sodipodi:docname="aeB04.svg"
   inkscape:version="0.92.2 5c3e80d, 2017-08-06">
  <defs
     id="defs26" />
  <sodipodi:namedview
     id="base"
     pagecolor="#ffffff"
     bordercolor="#666666"
     borderopacity="1.0"
     inkscape:pageopacity="0.0"
     inkscape:pageshadow="2"
     inkscape:zoom="2.1293412"
     inkscape:cx="174.21243"
     inkscape:cy="100.14834"
     inkscape:document-units="mm"
     inkscape:current-layer="layer1"
     showgrid="true"
     inkscape:window-width="1920"
     inkscape:window-height="1015"
     inkscape:window-x="0"
     inkscape:window-y="0"
     inkscape:window-maximized="1"
     fit-margin-top="0"
     fit-margin-left="0"
     fit-margin-right="0"
     fit-margin-bottom="0">
    <inkscape:grid
       type="xygrid"
       id="grid48"
       originx="-12.590084"
       originy="-138.95249" />
  </sodipodi:namedview>
  <metadata
     id="metadata29">
    <rdf:RDF>
      <cc:Work
         rdf:about="">
        <dc:format>image/svg+xml</dc:format>
        <dc:type
           rdf:resource="http://purl.org/dc/dcmitype/StillImage" />
        <dc:title></dc:title>
      </cc:Work>
    </rdf:RDF>
  </metadata>
  <g
     inkscape:label="Layer 1"
     inkscape:groupmode="layer"
     id="layer1"
     transform="translate(-12.590085,-105.05235)">
    <path
       style="fill:#0000fb;fill-opacity:1;fill-rule:evenodd;stroke:#0000fa;stroke-width:0.99999994px;stroke-linecap:butt;stroke-linejoin:miter;stroke-opacity:1"
       d="m 334.58594,397.54883 -286.298831,0.32226 v 13.31641 l 285.669921,0.18555 c 0,0 32.54879,3.39131 32.25751,27.41711 -0.28067,23.15129 -34.68915,27.25281 -34.68915,27.25281 l 0.10938,-41.48633 -283.347661,-0.0527 v 13.3164 l 269.101561,0.4961 0.23047,131.40625 c 0,0 76.96355,7.03327 77.68197,-43.05851 0.6909,-48.17278 -60.40267,-45.22665 -60.40267,-45.22665 0,0 46.09276,-6.82327 45.87695,-42.64737 -0.21577,-35.8241 -46.18945,-41.2413 -46.18945,-41.2413 z m -2.5586,95.74609 c 0,0 43.40814,2.461 42.71314,33.36926 -0.71842,31.95005 -42.62915,31.73135 -42.62915,31.73135 z"
       transform="scale(0.26458333)"
       id="path7163"
       inkscape:connector-curvature="0"
       sodipodi:nodetypes="ccccsccccccscccccscc" />
    <text
       xml:space="preserve"
       style="font-style:normal;font-variant:normal;font-weight:normal;font-stretch:normal;font-size:5.06668758px;line-height:125%;font-family:alblant;-inkscape-font-specification:'alblant, Normal';font-variant-ligatures:normal;font-variant-caps:normal;font-variant-numeric:normal;font-feature-settings:normal;text-align:start;letter-spacing:0px;word-spacing:0px;writing-mode:lr-tb;text-anchor:start;fill:#0000fe;fill-opacity:1;stroke:#0000f0;stroke-width:0.29222479px;stroke-linecap:butt;stroke-linejoin:miter;stroke-opacity:1"
       x="12.081043"
       y="169.83228"
       id="text955"
       transform="scale(1.0817567,0.92442228)"><tspan
         sodipodi:role="line"
         id="tspan953"
         x="12.081043"
         y="169.83228"
         style="font-style:normal;font-variant:normal;font-weight:normal;font-stretch:normal;font-size:4.70478106px;font-family:'DejaVu Sans Light';-inkscape-font-specification:'DejaVu Sans Light, ';font-variant-ligatures:normal;font-variant-caps:normal;font-variant-numeric:normal;font-feature-settings:normal;text-align:start;writing-mode:lr-tb;text-anchor:start;fill:#0000fe;fill-opacity:1;stroke:#0000f0;stroke-width:0.29222479px;stroke-opacity:1">Agrupamento de Escolas de Benfica</tspan></text>
    <path
       style="opacity:1;fill:#0000ff;fill-opacity:1;stroke:#0000ff;stroke-width:0.04996771;stroke-linecap:round;stroke-linejoin:round;stroke-miterlimit:4;stroke-dasharray:none;stroke-dashoffset:0;stroke-opacity:1"
       d="m 12.600001,119.39979 v 3.44476 h 29.493154 l -1.240488,3.60133 H 12.600001 v 3.5233 H 39.63256 l -1.174127,3.66747 H 12.600001 v 3.37912 h 24.668108 l -1.203387,3.5233 H 12.600001 v 3.5233 h 22.247226 l -1.19346,3.5233 H 12.600001 v 3.1905 h 26.345953 l 3.210949,-9.47642 8.701697,-0.16588 3.318591,9.6423 h 6.304328 l -3.44661,-9.55962 h 1.636471 c 1.228352,5.45723 6.149373,9.53844 12.037534,9.53844 5.071935,-1e-5 9.467646,-3.02808 11.301807,-7.35511 h -4.085666 c -1.580169,2.34624 -4.151742,3.90105 -7.186882,3.90105 -3.901055,0 -7.194474,-2.56634 -8.252844,-6.08438 h 20.434593 v -4.61677 c -0.946549,-5.80769 -6.071496,-10.24382 -12.211008,-10.24382 -6.128367,0 -11.210408,4.42016 -12.170255,10.21229 l -2.996097,-0.007 -5.806356,-17.12425 z m 33.897562,9.15914 2.662291,7.64862 h -5.284871 z m 24.24061,1.70997 c 3.498654,0.002 7.344348,2.68412 8.321819,6.32571 l -16.637887,-0.0212 c 0.984844,-3.63071 4.823282,-6.30675 8.316068,-6.30453 z"
       id="path848-3"
       inkscape:connector-curvature="0"
       sodipodi:nodetypes="cccccccccccccccccccccccccsccscccscccccccccccsc" />
  </g>
</svg>
